<svg xmlns="http://www.w3.org/2000/svg" width="20.58" height="18.867" viewBox="39 426 20.58 18.867"><g data-name="Group 13929"><g data-name="Path 23792"><path d="M51.007 426.001c2.26 0 4.52.002 6.78-.001.603 0 1.096.218 1.459.704.217.29.332.62.332.985.001 3.448.003 6.896-.001 10.344-.001.915-.753 1.664-1.67 1.688a3.43 3.43 0 0 1-.094.001H44.186c-.67 0-1.183-.293-1.532-.866a1.663 1.663 0 0 1-.229-.883c0-3.408-.004-6.816.001-10.223.002-1.015.75-1.746 1.774-1.748 2.269-.003 4.538 0 6.807 0Zm7.704 9.536c.006-.08.011-.119.011-.157 0-2.541.002-5.082 0-7.623-.001-.537-.37-.898-.905-.898H44.19c-.54 0-.903.356-.903.895-.002 3.158 0 6.315 0 9.473 0 .04.007.08.013.148.059-.055.095-.088.129-.122 1.058-1.057 2.115-2.116 3.174-3.172.57-.57 1.362-.57 1.931-.005.348.346.695.695 1.042 1.042.034.033.07.063.112.101.07-.082.132-.151.192-.223l3.112-3.736c.283-.34.644-.517 1.09-.497.42.02.733.234 1 .548 1.161 1.363 2.329 2.72 3.494 4.08.034.04.07.078.134.146Zm-7.722 3.328h6.713c.054 0 .107.002.161 0 .492-.02.847-.373.858-.866a17.07 17.07 0 0 0-.003-.965.458.458 0 0 0-.096-.262c-.756-.893-1.518-1.78-2.279-2.67-.636-.742-1.271-1.485-1.911-2.225a.869.869 0 0 0-.274-.226c-.186-.086-.367-.007-.534.194-1.165 1.4-2.331 2.8-3.498 4.199-.271.325-.504.332-.805.03-.47-.47-.94-.942-1.412-1.41-.213-.212-.462-.21-.673 0-1.242 1.24-2.482 2.483-3.726 3.722-.077.077-.067.128 0 .2.195.204.436.28.713.28h6.766Z" fill="#696969" fill-rule="evenodd"/><path d="M51.007 426.001c2.26 0 4.52.002 6.78-.001.603 0 1.096.218 1.459.704.217.29.332.62.332.985.001 3.448.003 6.896-.001 10.344-.001.915-.753 1.664-1.67 1.688a3.43 3.43 0 0 1-.094.001H44.186c-.67 0-1.183-.293-1.532-.866a1.663 1.663 0 0 1-.229-.883c0-3.408-.004-6.816.001-10.223.002-1.015.75-1.746 1.774-1.748 2.269-.003 4.538 0 6.807 0Zm7.704 9.536c.006-.08.011-.119.011-.157 0-2.541.002-5.082 0-7.623-.001-.537-.37-.898-.905-.898H44.19c-.54 0-.903.356-.903.895-.002 3.158 0 6.315 0 9.473 0 .04.007.08.013.148.059-.055.095-.088.129-.122 1.058-1.057 2.115-2.116 3.174-3.172.57-.57 1.362-.57 1.931-.005.348.346.695.695 1.042 1.042.034.033.07.063.112.101.07-.082.132-.151.192-.223l3.112-3.736c.283-.34.644-.517 1.09-.497.42.02.733.234 1 .548 1.161 1.363 2.329 2.72 3.494 4.08.034.04.07.078.134.146Zm-7.722 3.328h6.713c.054 0 .107.002.161 0 .492-.02.847-.373.858-.866a17.07 17.07 0 0 0-.003-.965.458.458 0 0 0-.096-.262c-.756-.893-1.518-1.78-2.279-2.67-.636-.742-1.271-1.485-1.911-2.225a.869.869 0 0 0-.274-.226c-.186-.086-.367-.007-.534.194-1.165 1.4-2.331 2.8-3.498 4.199-.271.325-.504.332-.805.03-.47-.47-.94-.942-1.412-1.41-.213-.212-.462-.21-.673 0-1.242 1.24-2.482 2.483-3.726 3.722-.077.077-.067.128 0 .2.195.204.436.28.713.28h6.766Z" stroke-linejoin="round" stroke-linecap="round" stroke-width=".4" stroke="#696969" fill="transparent"/></g><g data-name="Path 23793"><path d="M53.8 444.867c-.188-.047-.521-.124-.851-.212-1.44-.383-2.879-.77-4.317-1.155l-3.838-1.03c-1.478-.395-2.955-.793-4.434-1.183-.875-.23-1.43-.962-1.353-1.85.026-.294.127-.582.204-.87.396-1.483.795-2.965 1.193-4.446.102-.38.212-.756.303-1.138.074-.307.337-.421.546-.363.25.07.36.3.283.588l-1.4 5.221c-.089.332-.188.662-.257.997-.096.469.179.89.639 1.014 2.167.58 4.335 1.157 6.502 1.737l4.587 1.231 2.094.562c.509.136.958-.119 1.097-.627.216-.792.429-1.584.643-2.377.072-.269.26-.417.484-.384.252.039.418.249.364.5-.07.322-.163.64-.248.958-.145.539-.283 1.08-.44 1.614-.216.73-.884 1.214-1.8 1.213Z" fill="#696969" fill-rule="evenodd"/><path d="M53.8 444.867c-.188-.047-.521-.124-.851-.212-1.44-.383-2.879-.77-4.317-1.155l-3.838-1.03c-1.478-.395-2.955-.793-4.434-1.183-.875-.23-1.43-.962-1.353-1.85.026-.294.127-.582.204-.87.396-1.483.795-2.965 1.193-4.446.102-.38.212-.756.303-1.138.074-.307.337-.421.546-.363.25.07.36.3.283.588l-1.4 5.221c-.089.332-.188.662-.257.997-.096.469.179.89.639 1.014 2.167.58 4.335 1.157 6.502 1.737l4.587 1.231 2.094.562c.509.136.958-.119 1.097-.627.216-.792.429-1.584.643-2.377.072-.269.26-.417.484-.384.252.039.418.249.364.5-.07.322-.163.64-.248.958-.145.539-.283 1.08-.44 1.614-.216.73-.884 1.214-1.8 1.213Z" stroke-linejoin="round" stroke-linecap="round" stroke-width=".4" stroke="#696969" fill="transparent"/></g><g data-name="Path 23794"><path d="M46.716 432.003a1.722 1.722 0 0 1-1.717-1.71 1.716 1.716 0 0 1 3.432-.002 1.72 1.72 0 0 1-1.715 1.712Zm-.855-1.71c.003.47.383.851.852.852a.855.855 0 0 0 .855-.862.855.855 0 0 0-.865-.851.855.855 0 0 0-.842.861Z" fill="#696969" fill-rule="evenodd"/><path d="M46.716 432.003a1.722 1.722 0 0 1-1.717-1.71 1.716 1.716 0 0 1 3.432-.002 1.72 1.72 0 0 1-1.715 1.712Zm-.855-1.71c.003.47.383.851.852.852a.855.855 0 0 0 .855-.862.855.855 0 0 0-.865-.851.855.855 0 0 0-.842.861Z" stroke-linejoin="round" stroke-linecap="round" stroke-width=".4" stroke="#696969" fill="transparent"/></g></g></svg>