<svg xmlns="http://www.w3.org/2000/svg" width="28.542" height="28.482" viewBox="321 216 28.542 28.482"><g data-name="Group 13915"><path d="M335.653 244.475v-.26c0-4.472.001-8.943-.004-13.414 0-.178.046-.273.213-.357 4.49-2.254 8.977-4.515 13.465-6.774.056-.028.114-.05.2-.086.004.096.012.17.012.242 0 4.478 0 8.957.003 13.435 0 .169-.044.265-.202.344-4.452 2.235-8.902 4.475-13.352 6.714-.098.05-.2.093-.335.156Z" fill="#000" fill-rule="evenodd" data-name="Path 23786"/><path d="M330.184 233.307v-5.118c.199.096.37.176.537.26 1.32.665 2.637 1.332 3.959 1.991.15.076.215.157.215.336-.006 4.486-.005 8.972-.005 13.458v.248c-.217-.108-.399-.197-.58-.288-4.362-2.196-8.724-4.393-13.088-6.584-.161-.08-.222-.17-.222-.353.005-4.472.004-8.943.004-13.415v-.267c.144.066.259.114.369.17 1.496.752 2.99 1.51 4.488 2.256.175.087.246.18.245.383-.01 1.57-.001 3.141-.01 4.712-.001.203.065.253.254.249.51-.01 1.019.002 1.528-.007a.554.554 0 0 1 .448.182c.54.559 1.094 1.106 1.64 1.66.053.054.083.13.123.194l.095-.067Z" fill="#000" fill-rule="evenodd" data-name="Path 23787"/><path d="M330.617 227.527c.09-.052.147-.088.207-.12 4.337-2.32 8.674-4.638 13.01-6.96.124-.067.223-.08.352-.014 1.576.798 3.154 1.592 4.73 2.387.049.025.093.057.175.107-.363.185-.692.354-1.023.52-4.178 2.104-8.357 4.206-12.532 6.314a.519.519 0 0 1-.53-.004c-1.384-.706-2.774-1.401-4.162-2.1-.067-.034-.131-.075-.227-.13Z" fill="#000" fill-rule="evenodd" data-name="Path 23788"/><path d="M321.461 222.922c.088-.052.15-.093.217-.127l11.568-5.823c.625-.314 1.248-.633 1.877-.94a.374.374 0 0 1 .288-.006c1.436.713 2.867 1.436 4.3 2.158.054.027.104.063.193.117-.095.058-.161.103-.231.14-4.162 2.226-8.33 4.442-12.48 6.692-.5.27-.864.283-1.362.014-1.367-.738-2.77-1.411-4.157-2.11-.062-.032-.122-.066-.213-.115Z" fill="#000" fill-rule="evenodd" data-name="Path 23789"/></g></svg>