<svg xmlns="http://www.w3.org/2000/svg" width="32" height="42.075" viewBox="0 0 32 42.075">
  <g id="Group_13985" data-name="Group 13985" transform="translate(-2059.701 -9.765)">
    <path id="Subtraction_1" data-name="Subtraction 1" d="M16,32A16,16,0,0,1,4.686,4.686,16,16,0,1,1,27.314,27.314,15.9,15.9,0,0,1,16,32ZM16,4a3,3,0,1,0,3,3A3,3,0,0,0,16,4Z" transform="translate(2059.701 19.84)" fill="#ef9a48"/>
    <path id="Path_25786" data-name="Path 25786" d="M2141.825,31.071s-4.786-12.195-2.394-16.017S2141.825,31.071,2141.825,31.071Z" transform="translate(-66.125 -4.294)" fill="none" stroke="#d98a3d" stroke-width="1"/>
    <circle id="Ellipse_59" data-name="Ellipse 59" cx="1" cy="1" r="1" transform="translate(2074.701 25.84)" fill="#d98a3d"/>
  </g>
</svg>
