<svg xmlns="http://www.w3.org/2000/svg" width="18.642" height="39.724" viewBox="0 0 18.642 39.724">
  <g id="Group_13989" data-name="Group 13989" transform="translate(-1994 -14)">
    <path id="Union_2" data-name="Union 2" d="M15.341,45.664H3.319A1.5,1.5,0,0,1,1.809,44.2l-.486-13.58a.5.5,0,0,0-.007-.068L0,23.006V13.949H18.642v9.056L17.3,30.554a.5.5,0,0,0-.008.072L16.851,44.2a1.5,1.5,0,0,1-1.5,1.462ZM0,12.95V9.92a.67.67,0,0,1,.67-.669h17.3a.67.67,0,0,1,.669.669v3.03Zm2.222-4.7V7.708L16.566,5.942a.18.18,0,0,1,.2.178V8.252Z" transform="translate(1994 8.059)" fill="#4dc369"/>
    <rect id="Rectangle_2659" data-name="Rectangle 2659" width="7" height="1.5" rx="0.75" transform="translate(1997 49)" fill="#92e0a5"/>
    <rect id="Rectangle_2660" data-name="Rectangle 2660" width="4" height="1.5" rx="0.75" transform="translate(2006 49)" fill="#92e0a5"/>
  </g>
</svg>
