<svg xmlns="http://www.w3.org/2000/svg" width="19.211" height="19.207" viewBox="517.448 129.809 19.211 19.207"><g data-name="Path 23771"><path d="M536.754 143.601V130.475c0-.354-.199-.565-.532-.565h-9.034c-.32 0-.528.208-.53.529l-.002.187c-.002.22-.005.446.005.67.003.07.003.076-.08.098-1.148.302-2.305.613-3.299.88a.536.536 0 0 0-.345.241c-.067.118-.078.262-.033.427l.27.999.332 1.24c.391 1.463.783 2.927 1.176 4.39.009.032.009.036-.02.064a696.957 696.957 0 0 1-1.398 1.395h.001a1.203 1.203 0 0 0-.912-.42 375.12 375.12 0 0 0-3.593 0 1.225 1.225 0 0 0-1.21 1.224c-.002 1.962-.002 3.996 0 6.047 0 .676.553 1.228 1.23 1.23 1.295.002 2.587.001 3.568 0 .487-.001.935-.302 1.126-.752.084.072.164.14.24.21.408.366.88.544 1.442.544h.003c4.432-.004 7.827-.003 11.008.003h.001a.59.59 0 0 0 .43-.162.586.586 0 0 0 .16-.428c-.006-1.641-.005-3.31-.004-4.925Zm-3.328 3.733h.006c.112-.015.219-.029.325-.06a1.371 1.371 0 0 0 .896-1.812 1.38 1.38 0 0 0 .81-.837 1.416 1.416 0 0 0-.13-1.177.356.356 0 0 1-.04-.17c-.003-1.086-.003-2.19-.003-3.258v-1.146c0-.068-.001-.14-.011-.214a.486.486 0 0 0-.461-.419.48.48 0 0 0-.501.393 1.253 1.253 0 0 0-.016.231v3.078a1.39 1.39 0 0 0-.233-.416c-.255-.315-.63-.5-1.03-.51a7.934 7.934 0 0 0-.146-.002c.358-.294.594-.691.677-1.148a1.913 1.913 0 0 0-.426-1.59 1.902 1.902 0 0 0-2.799-.086c-.407.409-.6 1.038-.503 1.64.075.472.315.878.687 1.175h-1.417v-1.583l-.003-5.168c0-.06 0-.06.058-.079.62-.201 1.03-.615 1.223-1.229.013-.04.022-.047.022-.047s.012-.006.056-.006c.751.004 1.544.005 2.494 0 .023 0 .036.002.04.003a.156.156 0 0 1 .013.032c.201.641.63 1.065 1.273 1.26a.157.157 0 0 1 .015.006 54.805 54.805 0 0 0 0 1.017c.003.316.18.447.329.5a.49.49 0 0 0 .427-.042.463.463 0 0 0 .218-.342c.015-.127.014-.255.014-.379v-1.091c-.002-.383-.165-.558-.546-.584a.865.865 0 0 1-.813-.798l-.003-.03c-.011-.13-.027-.309-.187-.416a.663.663 0 0 0-.338-.117 474.18 474.18 0 0 0-3.395-.004c-.31 0-.5.19-.522.521-.022.324-.153.553-.402.7-.118.07-.27.119-.426.14-.381.048-.537.22-.537.589V139.174a262.427 262.427 0 0 0 .001 1.844h-.022c-.132-.007-.261-.005-.397-.004h-.048v-10.106h8.1v17.207h-2.327a1.427 1.427 0 0 0-.002-.781Zm-4.653-.49c.003.302.23.49.595.49h.846l1.844.001c.23 0 .386.116.425.318a.388.388 0 0 1-.07.312.387.387 0 0 1-.277.155c-.036.003-.073.003-.113.003h-1.8c-1.654 0-3.365 0-5.048.002-.328 0-.591-.098-.824-.311-.23-.21-.47-.414-.702-.611l-.028-.024c-.039-.033-.05-.056-.05-.104l.002-2.307c0-.864 0-1.727.002-2.591 0-.03.015-.066.024-.076.413-.418.836-.84 1.246-1.25l.154-.153.033.128.183.715c.085.337.245.462.587.462h1.47c1.876 0 3.75 0 5.626.002.097 0 .17.009.23.028.167.053.282.23.261.402a.402.402 0 0 1-.37.355c-.037.003-.076.002-.117.002h-3.577c-.329 0-.463.176-.518.322a.49.49 0 0 0 .415.663c.044.004.086.004.126.004h4.748c.223 0 .362.085.426.26a.39.39 0 0 1-.336.526 1.46 1.46 0 0 1-.126.002h-4.726c-.266 0-.441.105-.523.312a.49.49 0 0 0 .415.674c.044.003.085.003.125.003h3.958c.163 0 .37.052.434.302a.391.391 0 0 1-.343.484 1.256 1.256 0 0 1-.118.002h-3.919c-.195 0-.354.056-.46.162a.459.459 0 0 0-.13.336Zm-2.113-13.396a.257.257 0 0 1-.004.063.124.124 0 0 1-.023.004.279.279 0 0 0-.08.019l-.016.005c-.301.082-.446.312-.387.617.098.511-.116.888-.604 1.06-.31.11-.432.35-.345.673.462 1.708.922 3.417 1.383 5.126h-.016c-.16.001-.311.002-.463-.004a.094.094 0 0 1-.01-.019c-.05-.192-.099-.387-.147-.577-.062-.25-.127-.507-.196-.76-.133-.488-.27-.983-.404-1.462-.14-.505-.285-1.027-.425-1.541-.178-.655-.356-1.321-.528-1.966a669.17 669.17 0 0 0-.424-1.577l.003-.001c.653-.172 1.316-.35 1.956-.523l.727-.195v.29c-.001.252-.002.512.003.768Zm-.404 2.537c.142-.089.27-.192.389-.316v1.774a244.495 244.495 0 0 1-.39-1.458Zm5.448 2.617a.91.91 0 0 1 .909.904.901.901 0 0 1-.268.645.9.9 0 0 1-.64.268h-.004a.91.91 0 0 1 .003-1.817Zm-11.637 7.09c0 .165.052.303.15.4.09.09.21.135.35.135a.49.49 0 0 0 .485-.447c.004-.044.003-.086.003-.127v-4.046l.302-.001c.365-.002.709-.004 1.06.007.094.003.16.118.166.224.002.026.002.052.001.078V147.776c0 .272-.074.347-.344.347h-3.369c-.253 0-.334-.08-.334-.333v-5.86c0-.255.078-.333.334-.333a405.94 405.94 0 0 1 1.196 0v4.096Z" fill="#fff" fill-rule="evenodd"/><path d="M536.754 143.601V130.475c0-.354-.199-.565-.532-.565h-9.034c-.32 0-.528.208-.53.529l-.002.187c-.002.22-.005.446.005.67.003.07.003.076-.08.098-1.148.302-2.305.613-3.299.88a.536.536 0 0 0-.345.241c-.067.118-.078.262-.033.427l.27.999.332 1.24c.391 1.463.783 2.927 1.176 4.39.009.032.009.036-.02.064a696.957 696.957 0 0 1-1.398 1.395h.001a1.203 1.203 0 0 0-.912-.42 375.12 375.12 0 0 0-3.593 0 1.225 1.225 0 0 0-1.21 1.224c-.002 1.962-.002 3.996 0 6.047 0 .676.553 1.228 1.23 1.23 1.295.002 2.587.001 3.568 0 .487-.001.935-.302 1.126-.752.084.072.164.14.24.21.408.366.88.544 1.442.544h.003c4.432-.004 7.827-.003 11.008.003h.001a.59.59 0 0 0 .43-.162.586.586 0 0 0 .16-.428c-.006-1.641-.005-3.31-.004-4.925Zm-3.328 3.733h.006c.112-.015.219-.029.325-.06a1.371 1.371 0 0 0 .896-1.812 1.38 1.38 0 0 0 .81-.837 1.416 1.416 0 0 0-.13-1.177.356.356 0 0 1-.04-.17c-.003-1.086-.003-2.19-.003-3.258v-1.146c0-.068-.001-.14-.011-.214a.486.486 0 0 0-.461-.419.48.48 0 0 0-.501.393 1.253 1.253 0 0 0-.016.231v3.078a1.39 1.39 0 0 0-.233-.416c-.255-.315-.63-.5-1.03-.51a7.934 7.934 0 0 0-.146-.002c.358-.294.594-.691.677-1.148a1.913 1.913 0 0 0-.426-1.59 1.902 1.902 0 0 0-2.799-.086c-.407.409-.6 1.038-.503 1.64.075.472.315.878.687 1.175h-1.417v-1.583l-.003-5.168c0-.06 0-.06.058-.079.62-.201 1.03-.615 1.223-1.229.013-.04.022-.047.022-.047s.012-.006.056-.006c.751.004 1.544.005 2.494 0 .023 0 .036.002.04.003a.156.156 0 0 1 .013.032c.201.641.63 1.065 1.273 1.26a.157.157 0 0 1 .015.006 54.805 54.805 0 0 0 0 1.017c.003.316.18.447.329.5a.49.49 0 0 0 .427-.042.463.463 0 0 0 .218-.342c.015-.127.014-.255.014-.379v-1.091c-.002-.383-.165-.558-.546-.584a.865.865 0 0 1-.813-.798l-.003-.03c-.011-.13-.027-.309-.187-.416a.663.663 0 0 0-.338-.117 474.18 474.18 0 0 0-3.395-.004c-.31 0-.5.19-.522.521-.022.324-.153.553-.402.7-.118.07-.27.119-.426.14-.381.048-.537.22-.537.589V139.174a262.427 262.427 0 0 0 .001 1.844h-.022c-.132-.007-.261-.005-.397-.004h-.048v-10.106h8.1v17.207h-2.327a1.427 1.427 0 0 0-.002-.781Zm-4.653-.49c.003.302.23.49.595.49h.846l1.844.001c.23 0 .386.116.425.318a.388.388 0 0 1-.07.312.387.387 0 0 1-.277.155c-.036.003-.073.003-.113.003h-1.8c-1.654 0-3.365 0-5.048.002-.328 0-.591-.098-.824-.311-.23-.21-.47-.414-.702-.611l-.028-.024c-.039-.033-.05-.056-.05-.104l.002-2.307c0-.864 0-1.727.002-2.591 0-.03.015-.066.024-.076.413-.418.836-.84 1.246-1.25l.154-.153.033.128.183.715c.085.337.245.462.587.462h1.47c1.876 0 3.75 0 5.626.002.097 0 .17.009.23.028.167.053.282.23.261.402a.402.402 0 0 1-.37.355c-.037.003-.076.002-.117.002h-3.577c-.329 0-.463.176-.518.322a.49.49 0 0 0 .415.663c.044.004.086.004.126.004h4.748c.223 0 .362.085.426.26a.39.39 0 0 1-.336.526 1.46 1.46 0 0 1-.126.002h-4.726c-.266 0-.441.105-.523.312a.49.49 0 0 0 .415.674c.044.003.085.003.125.003h3.958c.163 0 .37.052.434.302a.391.391 0 0 1-.343.484 1.256 1.256 0 0 1-.118.002h-3.919c-.195 0-.354.056-.46.162a.459.459 0 0 0-.13.336Zm-2.113-13.396a.257.257 0 0 1-.004.063.124.124 0 0 1-.023.004.279.279 0 0 0-.08.019l-.016.005c-.301.082-.446.312-.387.617.098.511-.116.888-.604 1.06-.31.11-.432.35-.345.673.462 1.708.922 3.417 1.383 5.126h-.016c-.16.001-.311.002-.463-.004a.094.094 0 0 1-.01-.019c-.05-.192-.099-.387-.147-.577-.062-.25-.127-.507-.196-.76-.133-.488-.27-.983-.404-1.462-.14-.505-.285-1.027-.425-1.541-.178-.655-.356-1.321-.528-1.966a669.17 669.17 0 0 0-.424-1.577l.003-.001c.653-.172 1.316-.35 1.956-.523l.727-.195v.29c-.001.252-.002.512.003.768Zm-.404 2.537c.142-.089.27-.192.389-.316v1.774a244.495 244.495 0 0 1-.39-1.458Zm5.448 2.617h0a.91.91 0 0 1 .909.904.901.901 0 0 1-.268.645.9.9 0 0 1-.64.268h-.004a.91.91 0 0 1 .003-1.817Zm-11.637 7.09c0 .165.052.303.15.4.09.09.21.135.35.135a.49.49 0 0 0 .485-.447c.004-.044.003-.086.003-.127v-4.046l.302-.001c.365-.002.709-.004 1.06.007.094.003.16.118.166.224.002.026.002.052.001.078V147.776c0 .272-.074.347-.344.347h-3.369c-.253 0-.334-.08-.334-.333v-5.86c0-.255.078-.333.334-.333a405.94 405.94 0 0 1 1.196 0v4.096Z" stroke-linejoin="round" stroke-linecap="round" stroke-width=".2" stroke="#fff" fill="transparent"/></g></svg>