<svg xmlns="http://www.w3.org/2000/svg" width="22.408" height="20.104" viewBox="37.392 183.762 22.408 20.104"><g data-name="package-svgrepo-com"><path d="m59.568 187.974-10.635-3.982a.469.469 0 0 0-.326 0l-10.709 4.01c-.188.054-.415.351-.247.655v11.244c0 .199.126.375.314.44l10.538 3.637c.062.036.11.068.22.083.156.02.254-.023.254-.024l10.71-3.696a.466.466 0 0 0 .313-.44v-11.463c.004-.223-.258-.402-.432-.464Zm-1.417.464-9.353 3.502-2.807-1.05 8.909-3.67 3.251 1.218Zm-4.532-1.698-9.362 3.856-.23 2.24-1.743-.703v-2.078l9.71-3.923 1.625.608Zm-4.849-1.815 1.934.724-9 3.636-2.288-.858 9.354-3.502Zm-10.188 4.205 2.77 1.038v2.594l3.475 1.4.267-2.594 3.266 1.223v10.153l-9.778-3.375V189.13Zm20.487 10.44-9.778 3.374V192.77l9.778-3.662v10.46Z" fill="#696969" fill-rule="evenodd"/><path d="m59.568 187.974-10.635-3.982a.469.469 0 0 0-.326 0l-10.709 4.01c-.188.054-.415.351-.247.655v11.244c0 .199.126.375.314.44l10.538 3.637c.062.036.11.068.22.083.156.02.254-.023.254-.024l10.71-3.696a.466.466 0 0 0 .313-.44v-11.463c.004-.223-.258-.402-.432-.464Zm-1.417.464-9.353 3.502-2.807-1.05 8.909-3.67 3.251 1.218Zm-4.532-1.698-9.362 3.856-.23 2.24-1.743-.703v-2.078l9.71-3.923 1.625.608Zm-4.849-1.815 1.934.724-9 3.636-2.288-.858 9.354-3.502Zm-10.188 4.205 2.77 1.038v2.594l3.475 1.4.267-2.594 3.266 1.223v10.153l-9.778-3.375V189.13Zm20.487 10.44-9.778 3.374V192.77l9.778-3.662v10.46Z" stroke-linejoin="round" stroke-linecap="round" stroke-width=".4" stroke="#696969" fill="transparent"/></g></svg>