<svg xmlns="http://www.w3.org/2000/svg" width="21.605" height="18.867" viewBox="471.433 1372.308 21.605 18.867"><path d="M482.224 1391.174c-2.76 0-5.522-.001-8.283.001-.246 0-.461-.053-.58-.287a.714.714 0 0 1-.07-.307c-.006-.713-.003-1.425-.003-2.138 0-2.31-.002-4.621.004-6.932 0-.145-.05-.212-.171-.277-1.046-.564-1.599-1.447-1.686-2.628a.753.753 0 0 1 .105-.442c1.044-1.835 2.088-3.671 3.128-5.51a.626.626 0 0 1 .593-.346c4.646.002 9.291.002 13.937 0 .276 0 .467.112.604.354a1191.04 1191.04 0 0 0 3.127 5.494c.167.292.106.584.055.874a2.937 2.937 0 0 1-.98 1.755c-.203.176-.439.318-.67.458-.107.065-.157.124-.157.258.005 3.013.003 6.027.006 9.04 0 .247-.07.452-.295.56a.87.87 0 0 1-.366.07c-1.96.004-3.92.003-5.879.003h-2.419Zm-5.12-10.94c-.039.044-.068.074-.093.107-.635.82-1.473 1.236-2.51 1.242-.129 0-.156.04-.156.16.003 2.737.003 5.475 0 8.212-.001.135.045.165.169.163.501-.006 1.003-.002 1.505-.002.202 0 .202 0 .202-.2v-5.118c.001-.192.008-.384.02-.576.052-.789.717-1.535 1.505-1.599.666-.054 1.339-.032 2.008-.021.334.005.638.143.905.346.505.387.733.908.733 1.537 0 1.819.001 3.638-.002 5.457 0 .123.025.17.16.17 2.804-.004 5.608-.004 8.411-.001.12 0 .162-.03.162-.157-.004-2.737-.003-5.475 0-8.212 0-.123-.034-.159-.16-.159-.92 0-1.694-.344-2.32-1.019-.095-.101-.178-.213-.277-.332-.64.87-1.482 1.347-2.555 1.35-1.078.002-1.922-.48-2.572-1.35-.65.868-1.492 1.351-2.57 1.35-1.078-.001-1.923-.481-2.565-1.348Zm14.371-2.457c-.027-.057-.044-.099-.066-.138-.784-1.38-1.57-2.76-2.351-4.142-.051-.09-.111-.12-.213-.12-4.407.002-8.814.003-13.22 0-.11 0-.169.037-.221.13-.776 1.374-1.556 2.746-2.335 4.12-.024.042-.045.087-.076.15h18.482Zm-14.186 9.378c0 .932.002 1.864-.002 2.796 0 .122.033.16.158.16a253.8 253.8 0 0 1 2.727 0c.127 0 .167-.032.167-.164-.005-1.827-.003-3.654-.004-5.48 0-.513-.31-.823-.822-.825-.455-.002-.91 0-1.364 0-.563 0-.859.295-.86.857v2.656Zm14.642-8.285h-3.975c.125.92.991 1.64 1.97 1.654.96.015 1.833-.699 2.005-1.654Zm-19.39-.01a2.02 2.02 0 0 0 2.285 1.64c.991-.136 1.654-1.01 1.68-1.64h-3.965Zm9.104.003h-3.958c.103.813.906 1.668 2.001 1.658 1.102-.01 1.878-.888 1.957-1.658Zm1.19-.003c.047.72.822 1.663 1.972 1.661 1.15-.002 1.918-.94 1.97-1.66h-3.943Z" fill="#696969" fill-rule="evenodd" data-name="Path 23790"/></svg>