<svg xmlns="http://www.w3.org/2000/svg" width="35.247" height="24.697" viewBox="1132 218 35.247 24.697"><g data-name="Group 13913"><path d="M1153.519 233.082H1132V218.79c0-.593.197-.79.8-.79h19.964c.543 0 .767.216.767.738v14.087c0 .076-.007.152-.012.256Zm-11.769-6.986c-.142-.168-.25-.315-.377-.443-.86-.865-1.723-1.725-2.584-2.59-.424-.425-.933-.642-1.533-.58-.765.08-1.31.488-1.58 1.207-.283.757-.104 1.438.459 2.01.99 1.006 1.982 2.009 2.982 3.004.49.488 1 .954 1.497 1.433.566.545 1.656.648 2.33-.012.13-.127.28-.235.408-.364 2.038-2.035 4.074-4.07 6.108-6.11a1.77 1.77 0 0 0 .516-1.217 1.874 1.874 0 0 0-1.102-1.774c-.72-.323-1.517-.182-2.097.394-1.139 1.128-2.27 2.264-3.402 3.399-.528.529-1.05 1.062-1.625 1.643Z" fill="#000" fill-rule="evenodd" data-name="Path 23775"/><path d="M1167.244 234.068c0 .925.002 1.836-.002 2.746 0 .22-.006.443-.037.66-.146 1.02-1.051 1.829-2.08 1.862-.287.01-.574.001-.888.001-.066-1.446-.643-2.621-1.812-3.474a4.13 4.13 0 0 0-2.736-.8c-1.136.063-2.096.517-2.88 1.336-.775.812-1.147 1.799-1.193 2.925h-11.993c-.06-1.39-.609-2.542-1.72-3.395-.78-.6-1.67-.889-2.657-.871-1.17.021-2.168.454-2.99 1.282-.814.821-1.209 1.828-1.246 2.975-.397 0-.776.047-1.14-.009-1.107-.171-1.866-1.092-1.87-2.218-.002-.97.001-1.94.002-2.91 0-.029.007-.057.014-.11h35.228Z" fill="#000" fill-rule="evenodd" data-name="Path 23776"/><path d="M1167.216 233.079h-12.724v-12.75h5.465c.825 0 1.48.331 1.98.988 1.565 2.054 3.123 4.114 4.707 6.153.398.514.596 1.069.6 1.7.007 1.267 0 2.535-.003 3.802 0 .027-.013.054-.025.107Zm-10.36-5.163h8.94c-.082-.115-.138-.2-.199-.28-.931-1.233-1.856-2.471-2.798-3.696a102.646 102.646 0 0 0-1.833-2.293c-.238-.292-.56-.41-.943-.405-.96.011-1.92.003-2.88.004-.093 0-.185.01-.287.017v6.653Z" fill="#000" fill-rule="evenodd" data-name="Path 23777"/><path d="M1142.66 239.343a3.333 3.333 0 0 1-3.34 3.353 3.335 3.335 0 0 1-3.353-3.34 3.34 3.34 0 0 1 3.34-3.356 3.338 3.338 0 0 1 3.353 3.343Zm-3.337-1.225c-.724-.002-1.232.505-1.232 1.23 0 .712.497 1.226 1.199 1.237.717.012 1.238-.498 1.245-1.219.007-.729-.495-1.246-1.212-1.248Z" fill="#000" fill-rule="evenodd" data-name="Path 23778"/><path d="M1159.942 242.697a3.34 3.34 0 0 1-3.366-3.331 3.344 3.344 0 0 1 3.333-3.366 3.347 3.347 0 1 1 .033 6.696Zm-.03-2.114c.718.003 1.236-.51 1.24-1.228.004-.717-.513-1.237-1.228-1.236-.718 0-1.228.517-1.223 1.24.005.71.511 1.222 1.211 1.224Z" fill="#000" fill-rule="evenodd" data-name="Path 23779"/><path d="M1141.75 226.096c.574-.581 1.097-1.115 1.625-1.643 1.132-1.135 2.263-2.27 3.402-3.4.58-.575 1.377-.716 2.097-.393a1.874 1.874 0 0 1 1.102 1.774 1.77 1.77 0 0 1-.517 1.218c-2.033 2.039-4.07 4.074-6.107 6.109-.129.129-.278.237-.408.364-.674.66-1.764.557-2.33.012-.497-.48-1.008-.945-1.497-1.433-1-.995-1.993-1.998-2.982-3.004-.563-.572-.742-1.253-.459-2.01.269-.719.815-1.126 1.58-1.206.6-.063 1.109.154 1.533.58.86.864 1.725 1.724 2.584 2.589.127.128.235.275.377.443Z" fill="#fff" fill-rule="evenodd" data-name="Path 23780"/></g></svg>