<svg xmlns="http://www.w3.org/2000/svg" width="25.424" height="36.724" viewBox="597 212 25.424 36.724"><g data-name="Group 13914"><path d="M609.726 212h11.936c.592 0 .76.167.76.755 0 .693.003 1.386 0 2.078-.003.421-.198.62-.619.626-.452.007-.906.012-1.358-.001-.219-.007-.289.064-.29.286-.01 1.19.014 2.382-.065 3.568-.179 2.656-1.157 4.95-3.193 6.743a135.652 135.652 0 0 0-3.506 3.19c-.867.819-.836 1.81.037 2.626 1.245 1.164 2.525 2.29 3.774 3.45 1.417 1.318 2.268 2.954 2.665 4.84.221 1.049.292 2.109.292 3.176 0 .542.01 1.084-.005 1.625-.007.233.06.311.298.301.443-.018.888-.008 1.332-.004.425.004.635.214.637.64.004.738.004 1.475 0 2.212-.003.403-.202.598-.608.61-.08.003-.16.002-.24.002h-23.71c-.106 0-.214.004-.32-.005-.322-.025-.532-.225-.536-.55-.01-.79-.01-1.58.001-2.37.004-.324.24-.54.57-.547.47-.008.942-.013 1.412.002.216.007.266-.07.268-.274.01-1.057-.01-2.115.06-3.168.18-2.677 1.158-4.986 3.213-6.79 1.167-1.025 2.3-2.089 3.45-3.133.89-.808.88-1.921-.016-2.732-1.283-1.163-2.571-2.32-3.831-3.506-1.388-1.307-2.203-2.936-2.59-4.793-.211-1.015-.276-2.04-.277-3.07 0-.693-.005-1.386.002-2.079.001-.18-.06-.253-.247-.25-.453.01-.906.007-1.359.002-.46-.004-.658-.208-.66-.673-.002-.693-.002-1.385 0-2.078 0-.512.197-.709.708-.709h12.015Zm9.36 33.23c-.041-1.279-.027-2.525-.135-3.76-.194-2.205-1.073-4.095-2.756-5.587-1.182-1.048-2.34-2.124-3.501-3.195-1.328-1.224-1.38-2.976-.072-4.218 1.088-1.033 2.185-2.06 3.326-3.032 1.876-1.599 2.875-3.624 3.035-6.06.078-1.176.054-2.359.072-3.54.006-.376 0-.376-.371-.376h-17.929c-.053 0-.107.004-.16 0-.166-.015-.24.046-.236.225.028 1.464-.07 2.93.149 4.388.281 1.885 1.015 3.543 2.423 4.857 1.258 1.175 2.54 2.326 3.813 3.486.656.598 1.052 1.333 1.011 2.227-.038.813-.416 1.495-1.02 2.044-1.194 1.089-2.384 2.182-3.585 3.262-1.527 1.372-2.358 3.095-2.648 5.11-.195 1.354-.125 2.712-.137 4.069 0 .032.02.065.031.1h18.69Z" fill="#000" fill-rule="evenodd" data-name="Path 23781"/><path d="M609.702 244.06h-6.764c-.604-.001-.773-.179-.75-.785.116-3.131 2.421-6.01 5.47-6.83 4.044-1.088 8.027 1.09 9.263 5.098.18.586.237 1.215.306 1.83.054.474-.172.685-.654.685-2.29.002-4.58.001-6.87.001Z" fill="#000" fill-rule="evenodd" data-name="Path 23782"/><path d="M607.489 221.863c.868-.025 1.981.303 3.097.639.945.284 1.905.498 2.908.38.737-.086 1.398-.382 2.053-.702.215-.106.426-.22.644-.318.242-.11.473-.084.655.122.18.205.203.448.044.662-.358.483-.693.995-1.119 1.414a209.654 209.654 0 0 1-4.126 3.93c-.563.524-.923 1.132-1.047 1.891-.075.466-.39.715-.849.712-.495-.003-.867-.26-.927-.705-.107-.79-.49-1.386-1.072-1.926-1.495-1.39-2.951-2.821-4.42-4.24-.43-.415-.358-.805.182-1.056 1.162-.537 2.384-.796 3.977-.803Z" fill="#000" fill-rule="evenodd" data-name="Path 23783"/><path d="M609.72 232.954a.545.545 0 0 1-.556-.522.548.548 0 0 1 .554-.552.537.537 0 1 1 .002 1.074Z" fill="#000" fill-rule="evenodd" data-name="Path 23784"/><path d="M609.7 235.118a.55.55 0 0 1-.536-.544.545.545 0 0 1 .575-.529.536.536 0 1 1-.039 1.073Z" fill="#000" fill-rule="evenodd" data-name="Path 23785"/></g></svg>