<svg xmlns="http://www.w3.org/2000/svg" width="22" height="22" viewBox="38 242 22 22"><path d="M44.875 253.917a4.125 4.125 0 1 1 0-8.25 4.125 4.125 0 0 1 0 8.25Zm0-6.417a2.292 2.292 0 1 0 0 4.583 2.292 2.292 0 0 0 0-4.583Zm6.875 15.583v-.458a6.875 6.875 0 0 0-13.75 0v.458a.917.917 0 0 0 1.833 0v-.458a5.042 5.042 0 0 1 10.084 0v.458a.917.917 0 0 0 1.833 0ZM60 258.5a6.417 6.417 0 0 0-10.695-4.782.917.917 0 1 0 1.223 1.366 4.583 4.583 0 0 1 7.639 3.416.917.917 0 1 0 1.833 0Zm-5.958-8.25a4.125 4.125 0 1 1 0-8.25 4.125 4.125 0 0 1 0 8.25Zm0-6.417a2.292 2.292 0 1 0 0 4.584 2.292 2.292 0 0 0 0-4.584Z" fill="#c92424" fill-rule="evenodd" data-name="fi-rr-users"/></svg>