<svg width="171" height="169" viewBox="0 0 171 169" fill="none" xmlns="http://www.w3.org/2000/svg">
<path d="M1.04754 60.0718C4.58823 63.6915 8.41216 66.089 13.0387 66.9822C14.9742 67.3583 17.0042 67.5463 18.987 67.5463C62.7971 67.5933 106.56 67.5463 150.37 67.5933C157.451 67.5933 162.928 71.4951 164.722 77.8885C164.91 78.6406 165.099 79.3928 165.194 80.1449C165.288 80.8501 165.288 81.5552 165.288 82.2604C165.288 86.7263 165.288 91.1452 165.288 95.7992C164.533 95.7992 163.919 95.7992 163.258 95.7992C152.589 95.7992 141.872 95.7522 131.203 95.7992C118.504 95.8462 108.448 106.094 108.59 118.693C108.732 130.633 118.693 140.693 130.731 140.787C141.542 140.882 152.353 140.835 163.116 140.835C163.777 140.835 164.391 140.835 165.241 140.835C165.241 144.689 165.288 148.45 165.241 152.164C165.241 153.997 165.241 155.831 164.91 157.57C163.73 164.057 158.112 168.805 151.503 168.946C148.576 169.04 145.602 168.946 142.628 168.946C102.264 168.946 61.9001 168.946 21.5363 168.946C11.528 168.946 3.69125 162.976 1.47243 153.668C1.14196 152.211 0.953125 150.66 0.953125 149.155C1.00033 119.868 1.00033 90.5811 1.00033 61.294C1.00033 61.012 1.04754 60.7299 1.04754 60.0718Z" fill="#02B2FE"/>
<path d="M91.7362 61.9522C90.8392 54.5247 86.496 50.6699 79.1786 50.6699C77.8095 50.6699 76.4405 50.6699 75.1186 50.6699C71.5307 50.6229 68.9814 48.2724 69.0286 44.9817C69.0758 41.7851 71.5779 39.4346 75.0714 39.4346C79.5563 39.4346 84.0411 39.4346 88.526 39.4346C90.792 39.4346 92.2083 37.6482 91.5474 35.7678C91.0281 34.3575 89.9895 33.7934 88.526 33.8404C85.8823 33.8404 83.2386 33.8404 80.406 33.8404C80.406 32.007 80.406 30.3147 80.406 28.6693C80.3588 26.6479 79.2258 25.3787 77.4791 25.4257C75.8267 25.4727 74.7881 26.6949 74.7409 28.6693C74.6937 30.2677 74.7409 31.819 74.6937 33.4173C74.6937 33.5113 74.5993 33.6524 74.5521 33.7934C70.9642 34.0755 67.8484 35.3917 65.6768 38.4004C63.0803 41.9731 62.6082 45.8749 64.5438 49.8707C66.4793 53.9136 69.8312 56.076 74.3161 56.3581C76.3933 56.4991 78.4705 56.3581 80.5004 56.4051C83.6162 56.4991 85.8823 58.8026 85.9767 61.9522C71.2947 61.9522 56.6126 61.9522 41.8362 61.9522C40.8448 58.2385 40.5143 54.4307 40.9392 50.6229C42.6387 33.5114 54.4882 20.6777 71.4363 17.481C90.6032 13.8613 110.195 27.2591 113.736 46.345C114.633 51.14 114.727 55.888 113.688 60.683C113.594 61.2001 112.933 61.9522 112.508 61.9522C105.568 61.9522 98.7232 61.9522 91.7362 61.9522Z" fill="#85BB65"/>
<path d="M130.542 61.8581C126.718 61.8581 123.036 61.8581 119.259 61.8581C121.667 47.144 118.079 34.2633 107.504 23.6861C98.9592 15.0834 88.3844 10.9935 76.2044 11.3226C49.5313 12.0747 30.3644 36.8489 35.699 61.8581C31.9223 61.8581 28.1928 61.8581 24.4632 61.8581C21.4419 46.5799 26.446 24.3913 45.6601 10.4294C64.1189 -3.01538 88.7148 -3.48548 107.551 9.16014C127.285 22.3699 133.705 44.6525 130.542 61.8581Z" fill="#85BB65"/>
<path d="M147.962 101.346C153.58 101.346 159.151 101.346 164.769 101.346C168.64 101.346 170.953 103.65 171.001 107.457C171.001 114.65 171.001 121.889 171.001 129.082C171.001 132.796 168.64 135.146 164.911 135.146C153.769 135.146 142.628 135.193 131.487 135.146C121.856 135.099 114.35 127.625 114.35 118.223C114.35 108.868 121.903 101.44 131.534 101.346C137.01 101.346 142.486 101.346 147.962 101.346ZM131.345 126.684C135.924 126.684 139.795 122.877 139.843 118.317C139.89 113.616 136.019 109.808 131.345 109.808C126.718 109.808 122.894 113.569 122.847 118.176C122.8 122.83 126.624 126.684 131.345 126.684Z" fill="#02B2FE"/>
<path d="M131.392 28.434C135.216 28.434 138.945 28.0109 142.533 28.528C148.812 29.4212 153.674 34.8273 153.91 41.1266C154.146 47.99 153.958 54.8535 153.958 61.8109C148.104 61.8109 142.297 61.8109 136.443 61.8109C138.001 50.1525 136.301 39.0112 131.392 28.434Z" fill="#0575A6"/>
<path d="M23.7081 28.1522C18.704 39.0115 16.9572 50.1058 18.5623 61.9052C15.4937 62.0463 12.6612 61.3411 10.0175 59.9778C3.26658 56.3581 -0.274107 48.6955 1.42542 41.268C3.12495 33.7934 9.87585 28.3403 17.5709 28.1522C19.5537 28.1052 21.4893 28.1522 23.7081 28.1522Z" fill="#0575A6"/>
<path d="M134.13 118.317C134.082 119.821 132.808 121.043 131.297 121.043C129.786 121.043 128.512 119.774 128.512 118.27C128.512 116.671 129.881 115.402 131.439 115.449C132.949 115.496 134.177 116.812 134.13 118.317Z" fill="#02B2FE"/>
</svg>
