<svg xmlns="http://www.w3.org/2000/svg" width="15" height="15" viewBox="4.5 4.5 15 15"><path d="M14.15 4.775c-.275.274-.275.716-.275 1.6 0 .884 0 1.326.275 1.6.274.275.716.275 1.6.275h1.875c.884 0 1.326 0 1.6-.275.275-.274.275-.716.275-1.6 0-.884 0-1.326-.275-1.6-.274-.275-.716-.275-1.6-.275H15.75c-.884 0-1.326 0-1.6.275Zm-9.375 11.25c-.275.274-.275.716-.275 1.6 0 .884 0 1.326.275 1.6.274.275.716.275 1.6.275H8.25c.884 0 1.326 0 1.6-.275.275-.274.275-.716.275-1.6 0-.884 0-1.326-.275-1.6-.274-.275-.716-.275-1.6-.275H6.375c-.884 0-1.326 0-1.6.275Zm9.1-2.15c0-.884 0-1.326.275-1.6.274-.275.716-.275 1.6-.275h1.875c.884 0 1.326 0 1.6.275.275.274.275.716.275 1.6v3.75c0 .884 0 1.326-.275 1.6-.274.275-.716.275-1.6.275H15.75c-.884 0-1.326 0-1.6-.275-.275-.274-.275-.716-.275-1.6v-3.75Zm-9.1-9.1c-.275.274-.275.716-.275 1.6v3.75c0 .884 0 1.326.275 1.6.274.275.716.275 1.6.275H8.25c.884 0 1.326 0 1.6-.275.275-.274.275-.716.275-1.6v-3.75c0-.884 0-1.326-.275-1.6-.274-.275-.716-.275-1.6-.275H6.375c-.884 0-1.326 0-1.6.275Z" stroke-linejoin="round" stroke-linecap="round" stroke="#696969" fill="transparent" data-name="Path 3618" stroke-width=".9375"/></svg>